<?xml version="1.0" standalone="no"?>
<!DOCTYPE svg PUBLIC "-//W3C//DTD SVG 1.1//EN" "http://www.w3.org/Graphics/SVG/1.1/DTD/svg11.dtd" >
<svg xmlns="http://www.w3.org/2000/svg">
<metadata></metadata>
<defs>
<font id="super_mario_brothersregular" horiz-adv-x="1024" >
<font-face units-per-em="2048" ascent="1638" descent="-410" />
<missing-glyph horiz-adv-x="500" />
<glyph horiz-adv-x="2048" />
<glyph horiz-adv-x="2048" />
<glyph unicode="&#xd;" />
<glyph unicode=" " />
<glyph unicode="A" horiz-adv-x="1936" d="M130 508l300 -288l384 382l732 -58l68 -252l542 44l-658 1318l-468 24zM1006 966l230 350l128 -356z" />
<glyph unicode="B" horiz-adv-x="936" d="M24 1528l22 -1272l202 -72l656 52l136 536l-230 126l158 94l-116 400l-200 198zM392 558l14 128l104 16l106 -84l-24 -94zM392 1224l140 20l64 -96l-62 -30l-132 -8z" />
<glyph unicode="C" horiz-adv-x="1442" d="M8 1160l24 -710l594 -264l722 114l228 470l-550 46l-114 -104l-298 58l-92 114l126 230l596 -70l276 414l-998 196z" />
<glyph unicode="D" horiz-adv-x="1172" d="M102 184l494 10l234 126l348 370l136 496l-232 332l-456 126l-456 -118zM546 774l16 384l138 -26l34 -18l-32 -232z" />
<glyph unicode="E" d="M30 258l1110 -70l10 252l-622 88l-60 202l422 66l30 338l-418 32l4 102l440 68l8 270l-874 -68z" />
<glyph unicode="F" horiz-adv-x="1122" d="M26 1632l94 -1444l372 22l52 488l328 20l22 288l-350 -22l32 266l648 20l-12 394z" />
<glyph unicode="G" horiz-adv-x="1294" d="M32 882l268 -666l590 -32l104 150l118 -120l256 22v634l-408 -8l-126 -46l14 -184l-360 140l142 368l412 8l270 208l-436 220l-576 -88z" />
<glyph unicode="H" horiz-adv-x="1246" d="M12 218l462 -30l-24 564l424 -24l-10 -510l280 -18l222 1376l-478 30l-6 -444l-448 -24l-20 486h-376z" />
<glyph unicode="I" horiz-adv-x="554" d="M24 182h550l-138 1514h-352z" />
<glyph unicode="J" horiz-adv-x="912" d="M54 338l402 -150l530 208l-20 1210l-496 -56l52 -902l-138 -38l-174 100z" />
<glyph unicode="K" d="M20 1632l66 -1426l340 -18l-40 540l528 -474l246 226l-676 482l508 332l-208 244l-398 -368v454z" />
<glyph unicode="L" horiz-adv-x="1036" d="M28 1666l16 -1480l942 46l88 450l-682 -78l180 1076z" />
<glyph unicode="M" horiz-adv-x="2038" d="M22 238l510 -48l298 962l244 -444l466 472l308 -906l424 160l-380 1180l-354 32l-276 -216l-88 232l-512 56z" />
<glyph unicode="N" horiz-adv-x="1702" d="M98 1640l10 -1458h444l78 902l498 -826l510 -34l228 1524h-552v-784l-642 708z" />
<glyph unicode="O" horiz-adv-x="1442" d="M98 560l456 -370l952 198l92 778l-506 312l-612 18l-352 -174zM712 856l2 102l42 52l190 8l110 -84l-24 -132l-140 -62z" />
<glyph unicode="P" horiz-adv-x="1208" d="M26 192l330 28l14 360l530 -30l430 346l-28 460l-474 258l-774 -28zM486 1194l450 -30l8 -160l-166 -164l-274 28z" />
<glyph unicode="Q" horiz-adv-x="1454" d="M18 1290l46 -562l316 -352l444 70l94 -222l552 308l-188 164l338 642l-352 352l-782 152zM404 1092l304 304l408 -36l130 -176l-184 -184l-152 142l-354 -62l118 -258l-224 46z" />
<glyph unicode="R" horiz-adv-x="1246" d="M16 1748l16 -1426h362l28 510l638 -614l326 294l-544 346l364 198l-18 492l-544 192zM494 1048l12 392l56 -8l182 -150l12 -90l-226 -144h-36z" />
<glyph unicode="S" horiz-adv-x="1332" d="M64 1202l628 -502l-544 -216l268 -288l894 304l154 386l-712 288l-16 216l700 56l10 218l-900 -30z" />
<glyph unicode="T" horiz-adv-x="1158" d="M18 1266l498 -10l-160 -1074h470l-20 1038l386 -20l-18 378l-1146 -30z" />
<glyph unicode="U" horiz-adv-x="1172" d="M14 1580l104 -1204l454 -184l716 358l4 1036l-412 -90l-14 -806l-302 46l-62 862z" />
<glyph unicode="V" horiz-adv-x="1146" d="M-8 1532l218 -1340l302 34l816 994l-354 330l-512 -810l-18 852z" />
<glyph unicode="W" horiz-adv-x="2048" d="M36 1678l380 -1454l534 -30l326 292l252 -300l440 46l332 1106l-424 160l-320 -762l-466 472l-246 -444l-296 964z" />
<glyph unicode="X" horiz-adv-x="1306" d="M14 1420l422 -484l-412 -400l234 -222l418 348l400 -452l310 196l-402 514l510 430l-304 314l-426 -410l-316 482zM782 1404z" />
<glyph unicode="Y" horiz-adv-x="1184" d="M38 1200l434 -322l-28 -672l406 -20l10 654l538 674l-490 140l-236 -330l-304 190z" />
<glyph unicode="Z" horiz-adv-x="1344" d="M2 250l1362 -64l108 496l-880 10l762 474l42 398l-998 96l-192 -344l460 -54l-644 -548z" />
<glyph unicode="a" horiz-adv-x="1936" d="M0 498l984 1280l574 -32l748 -1496l-764 -60l-72 264l-620 48l-418 -416zM130 508l300 -288l384 382l732 -58l68 -252l542 44l-658 1318l-468 24zM828 874l432 656l244 -668zM1006 966l358 -6l-128 356z" />
<glyph unicode="b" horiz-adv-x="936" d="M-72 1614l758 76l252 -248l142 -494l-76 -46l150 -80l-172 -678l-748 -58l-282 102zM24 1528l22 -1272l202 -72l656 52l136 536l-230 126l158 94l-116 400l-200 198zM286 478l32 294l220 32l188 -150l-62 -240zM288 1308l292 40l156 -242l-176 -82l-246 -16zM392 558 l200 -34l24 94l-106 84l-104 -16zM392 1224l10 -114l132 8l62 30l-64 96z" />
<glyph unicode="c" horiz-adv-x="1442" d="M-88 1200l580 558l1188 -232l-388 -584l-590 70l-64 -116l30 -38l216 -42l110 100l730 -62l-312 -642l-800 -126l-672 300zM8 1160l24 -710l594 -264l722 114l228 470l-550 46l-114 -104l-298 58l-92 114l126 230l596 -70l276 414l-998 196z" />
<glyph unicode="d" horiz-adv-x="1172" d="M0 86l78 1516l548 142l514 -144l278 -396l-152 -564l-378 -398l-266 -144zM102 184l494 10l234 126l348 370l136 496l-232 332l-456 126l-456 -118zM440 582l30 692l262 -50l108 -58l-50 -340zM546 774l156 108l32 232l-34 18l-138 26z" />
<glyph unicode="e" d="M-68 166l56 1462l1066 84l-14 -458l-138 -22l124 -10l-46 -510l-388 -60l10 -38l648 -90l-18 -438zM30 258l1110 -70l10 252l-622 88l-60 202l422 66l30 338l-418 32l4 102l440 68l8 270l-874 -68z" />
<glyph unicode="f" horiz-adv-x="1122" d="M-76 1728l1382 36l16 -586l-660 -22l-8 -68l346 22l-38 -482l-330 -22l-52 -488l-550 -32zM26 1632l94 -1444l372 22l52 488l328 20l22 288l-350 -22l32 266l648 20l-12 394z" />
<glyph unicode="g" horiz-adv-x="1294" d="M-72 884l306 692l658 100l600 -302l-416 -322l-378 -8l-84 -218l126 -48l-8 104l210 76l524 12v-824l-392 -32l-66 70l-70 -98l-704 36zM32 882l268 -666l590 -32l104 150l118 -120l256 22v634l-408 -8l-126 -46l14 -184l-360 140l142 368l412 8l270 208l-436 220 l-576 -88z" />
<glyph unicode="h" horiz-adv-x="1246" d="M-84 128l30 1594h560l20 -484l260 14l6 456l686 -42l-252 -1570l-460 32l10 508l-226 14l24 -564zM12 218l462 -30l-24 564l424 -24l-10 -510l280 -18l222 1376l-478 30l-6 -444l-448 -24l-20 486h-376z" />
<glyph unicode="i" horiz-adv-x="554" d="M-76 86l70 1706h532l154 -1706h-756zM24 182h550l-138 1514h-352z" />
<glyph unicode="j" horiz-adv-x="912" d="M-72 282l234 566l236 -134l24 6l-52 916l692 78l20 -1384l-626 -244zM54 338l402 -150l530 208l-20 1210l-496 -56l52 -902l-138 -38l-174 100z" />
<glyph unicode="k" d="M-80 1732l562 -14v-328l310 288l344 -404l-482 -316l658 -468l-396 -368l-416 374l30 -410l-536 28zM20 1632l66 -1426l340 -18l-40 540l528 -474l246 226l-676 482l508 332l-208 244l-398 -368v454z" />
<glyph unicode="l" horiz-adv-x="1036" d="M-68 1760l754 20l-178 -1064l688 76l-130 -652l-1114 -54zM28 1666l16 -1480l942 46l88 450l-682 -78l180 1076z" />
<glyph unicode="m" horiz-adv-x="2038" d="M-118 154l720 1668l642 -70l62 -164l202 158l458 -42l426 -1328l-602 -226l-290 852l-448 -454l-196 360l-254 -822zM22 238l510 -48l298 962l244 -444l466 472l308 -906l424 160l-380 1180l-354 32l-276 -216l-88 232l-512 56z" />
<glyph unicode="n" horiz-adv-x="1702" d="M0 1730l714 42l502 -556v630h762l-256 -1724l-650 42l-372 616l-58 -694h-630zM98 1640l10 -1458h444l78 902l498 -826l510 -34l228 1524h-552v-784l-642 708z" />
<glyph unicode="o" horiz-adv-x="1442" d="M0 516l34 868l426 208l660 -18l582 -358l-108 -908l-1064 -222zM98 560l456 -370l952 198l92 778l-506 312l-612 18l-352 -174zM616 804l2 190l92 112l268 10l184 -140l-44 -242l-234 -104zM712 856l180 -116l140 62l24 132l-110 84l-190 -8l-42 -52z" />
<glyph unicode="p" horiz-adv-x="1208" d="M-72 86l34 1592l890 34l544 -298l34 -562l-498 -400l-470 26l-14 -348zM26 192l330 28l14 360l530 -30l430 346l-28 460l-474 258l-774 -28zM384 1298l644 -44l16 -288l-230 -228l-402 42zM486 1194l18 -326l274 -28l166 164l-8 160z" />
<glyph unicode="q" horiz-adv-x="1454" d="M-80 1322l528 626l868 -170l422 -422l-334 -638l234 -204l-768 -428l-104 254l-422 -68l-370 416zM18 1290l46 -562l316 -352l444 70l94 -222l552 308l-188 164l338 642l-352 352l-782 152zM404 1092l304 304l408 -36l130 -176l-184 -184l-152 142l-354 -62l118 -258 l-224 46zM640 1192l300 52l120 -110l60 60l-56 74l-320 28z" />
<glyph unicode="r" horiz-adv-x="1246" d="M-80 1846l742 -10l620 -218l22 -618l-270 -148l512 -328l-490 -438l-548 530l-22 -392h-548zM16 1748l16 -1426h362l28 510l638 -614l326 294l-544 346l364 198l-18 492l-544 192zM394 952l18 598l190 -26l232 -190l26 -192l-302 -190h-164zM494 1048h36l226 144l-12 90 l-182 150l-56 8z" />
<glyph unicode="s" horiz-adv-x="1332" d="M-84 1198l592 532l1040 34l-20 -406l-688 -56l4 -60l746 -302l-208 -518l-996 -336l-404 436l520 208zM64 1202l628 -502l-544 -216l268 -288l894 304l154 386l-712 288l-16 216l700 56l10 218l-900 -30z" />
<glyph unicode="t" horiz-adv-x="1158" d="M-80 1170l16 472l1330 34l28 -578l-388 20l18 -1032h-680l160 1076zM18 1266l498 -10l-160 -1074h470l-20 1038l386 -20l-18 378l-1146 -30z" />
<glyph unicode="u" horiz-adv-x="1172" d="M-88 1674l678 24l66 -876l116 -18l12 772l604 128l-2 -1214l-810 -404l-550 222zM14 1580l104 -1204l454 -184l716 358l4 1036l-412 -90l-14 -806l-302 46l-62 862z" />
<glyph unicode="v" horiz-adv-x="1146" d="M-118 1616l656 86l14 -638l402 636l506 -470l-898 -1096l-432 -48zM-8 1532l218 -1340l302 34l816 994l-354 330l-512 -810l-18 852z" />
<glyph unicode="w" horiz-adv-x="2048" d="M-84 1764l700 68l254 -822l198 358l454 -460l300 714l596 -224l-376 -1256l-554 -56l-222 262l-282 -252l-644 34zM36 1678l380 -1454l534 -30l326 292l252 -300l440 46l332 1106l-424 160l-320 -762l-466 472l-246 -444l-296 964z" />
<glyph unicode="x" horiz-adv-x="1306" d="M-128 1436l602 436l308 -468l410 398l444 -460l-520 -434l412 -526l-470 -296l-392 442l-412 -344l-368 350l418 408zM14 1420l422 -484l-412 -400l234 -222l418 348l400 -452l310 196l-402 514l510 430l-304 314l-426 -410l-316 482z" />
<glyph unicode="y" horiz-adv-x="1184" d="M-110 1192l466 442l288 -180l224 314l696 -202l-608 -760l-10 -720l-602 28l30 716zM38 1200l434 -322l-28 -672l406 -20l10 654l538 674l-490 140l-236 -330l-304 190z" />
<glyph unicode="z" horiz-adv-x="1344" d="M-98 160l28 600l504 432l-384 44l296 528l1158 -114l-60 -542l-520 -324l668 -8l-152 -690zM2 250l1362 -64l108 496l-880 10l762 474l42 398l-998 96l-192 -344l460 -54l-644 -548z" />
<glyph unicode="&#xa0;" />
<glyph unicode="&#x2000;" horiz-adv-x="974" />
<glyph unicode="&#x2001;" horiz-adv-x="1948" />
<glyph unicode="&#x2002;" horiz-adv-x="974" />
<glyph unicode="&#x2003;" horiz-adv-x="1948" />
<glyph unicode="&#x2004;" horiz-adv-x="649" />
<glyph unicode="&#x2005;" horiz-adv-x="487" />
<glyph unicode="&#x2006;" horiz-adv-x="324" />
<glyph unicode="&#x2007;" horiz-adv-x="324" />
<glyph unicode="&#x2008;" horiz-adv-x="243" />
<glyph unicode="&#x2009;" horiz-adv-x="389" />
<glyph unicode="&#x200a;" horiz-adv-x="108" />
<glyph unicode="&#x202f;" horiz-adv-x="389" />
<glyph unicode="&#x205f;" horiz-adv-x="487" />
<glyph unicode="&#xe000;" horiz-adv-x="1870" d="M0 0v1870h1870v-1870h-1870z" />
</font>
</defs>
</svg>
